PathFileType	4	(X/Y/Z)	C:/Users/beibeiliu/ov580/test_trc\sequence.16_training_dense_left.trc
DataRate	CameraRate	NumFrames	NumMarkers	Units	OrigDataRate	OrigDataStartFrame	OrigNumFrames
120	120	24	19	mm	120	30	88
Frame#	Time	ThumbCMC			ThumbMCP			ThumbIP			ThumbTip			IndexMCP			IndexPIP			IndexTip			MiddleMCP			MiddlePIP			MiddleTip			RingMCP			RingPIP			RingTip			PinkyMCP			PinkyPIP			PinkyTip			BackHand1			BackHand2			BackHand3	
		X0	Y0	Z0	X1	Y1	Z1	X2	Y2	Z2	X3	Y3	Z3	X4	Y4	Z4	X5	Y5	Z5	X6	Y6	Z6	X7	Y7	Z7	X8	Y8	Z8	X9	Y9	Z9	X10	Y10	Z10	X11	Y11	Z11	X12	Y12	Z12	X13	Y13	Z13	X14	Y14	Z14	X15	Y15	Z15	X16	Y16	Z16	X17	Y17	Z17	X18	Y18	Z18	
29	0.241667	-246.237	58.8421	27.6961	-228.196	78.7837	32.2928	-221.176	100.996	31.1404	-211.457	116.995	31.6553	-195.246	55.8774	-16.5745	-175.945	66.5266	-28.791	-154.008	78.272	-36.8403	-182.273	30.6804	-15.9428	-159.506	33.5854	-27.3356	-132.852	37.345	-35.5469	-178.413	16.6865	-2.17768	-156.36	15.8382	-10.1607	-136.918	14.0076	-14.2188	-179.488	2.31052	20.0012	-158.748	-3.68791	23.1321	-139.766	-5.52003	24.0436	-222.402	13.4516	12.5403	-242.767	7.90962	23.711	-241.275	31.1052	7.63028	
30	0.25	-243.951	55.9164	24.8681	-240.248	84.4581	29.5412	-232.697	101.336	30.7086	-226.813	123.109	29.1749	-199.632	71.1638	-22.4625	-183.297	79.1359	-30.6167	-162.48	96.177	-40.4013	-181.819	45.4071	-15.9164	-158.261	52.7159	-30.0268	-136.199	61.5099	-36.1671	-171.168	31.8816	-5.61102	-148.475	36.1391	-12.2242	-131.637	46.9388	-19.5561	-166.358	18.4641	20.3563	-149.772	20.1141	23.2616	-125.825	22.6517	23.3886	-208.318	15.156	9.93448	-230.577	5.8101	24.3723	-234.001	29.6269	6.78239	
31	0.258333	-247.956	52.7405	23.0729	-251.248	82.0196	26.9487	-247.316	100.129	24.7329	-250.04	122.773	23.4531	-204.845	73.7073	-27.419	-196.126	89.1971	-39.0937	-182.106	107.976	-49.2607	-182.795	57.8609	-25.4881	-164.314	69.3823	-38.1202	-144.926	83.6084	-48.7971	-170.479	43.738	-7.08494	-153.694	53.5378	-18.0933	-134.89	66.8637	-26.6357	-163.568	33.4724	17.9189	-142.448	40.4544	18.9217	-127.562	47.4864	17.1725	-203.317	22.0071	8.45421	-222.471	9.76012	24.4366	-232.349	33.6245	4.74143	
32	0.266667	-247	53.5253	19.3593	-253.998	78.7412	21.8196	-258.594	100.543	18.4154	-258.221	120.599	14.7424	-215.595	73.2064	-31.7802	-204.288	90.0133	-49.6823	-194.165	108.395	-61.7956	-186.871	61.5189	-29.4979	-171.144	73.0222	-47.8409	-155.752	91.5001	-60.3101	-173.462	54.3387	-16.7532	-156.133	63.6819	-27.6754	-141.786	78.8619	-37.3464	-158.908	48.7037	11.1533	-143.452	60.6827	5.78255	-125.782	71.8248	4.48868	-196.972	29.0726	5.12321	-213.929	15.1522	23.5979	-224.099	31.9716	5.69417	
33	0.275	-248.436	53.6027	15.9879	-256.203	80.0333	14.9301	-261.476	102.894	7.62177	-264.219	118.111	5.05478	-214.758	70.3135	-39.3726	-209.17	84.1682	-60.1383	-204.478	103.679	-75.0736	-189.898	63.2184	-40.5362	-176.515	72.6903	-58.3939	-164.354	89.3703	-73.1127	-173.411	59.916	-26.4441	-159.234	69.345	-38.6821	-145.82	85.3868	-52.2579	-154.669	60.2835	0.667932	-143.889	73.2374	-5.48724	-127.956	82.297	-7.6256	-196.282	35.4954	0.416297	-205.428	21.8242	18.385	-220.973	33.0417	0.570553	
34	0.283333	-245.202	54.9956	14.4408	-257.016	80.5784	12.7467	-262.422	98.9924	3.86774	-267.054	117.975	-4.70264	-220.855	66.4274	-44.0629	-215.096	80.435	-69.9009	-212.314	93.1275	-83.5607	-193.159	60.2734	-47.5987	-179.762	70.113	-68.1569	-169.219	88.0457	-86.4755	-174.577	59.2971	-30.5697	-164.085	69.6324	-51.5544	-151.64	84.0637	-65.2199	-160.507	63.9475	-5.44165	-144.498	78.3443	-16.8013	-132.6	90.9965	-24.8996	-195.056	39.1975	-1.65507	-202.292	25.4155	21.7707	-218.28	35.0849	0.186715	
35	0.291667	-246.93	56.064	15.874	-256.177	82.1255	6.20161	-262.153	97.6356	-2.37728	-268.911	116.134	-11.8786	-225.68	59.4843	-48.2127	-225.326	70.7898	-74.6998	-221.474	82.278	-89.4507	-193.011	54.4574	-49.2736	-186.642	62.2088	-73.3344	-177.856	75.6818	-93.9728	-176.82	56.9626	-34.4997	-166.831	64.3904	-57.4788	-159.775	75.6681	-72.1893	-158.576	65.8309	-15.1109	-146.993	78.3094	-26.1441	-136.697	89.1738	-32.4178	-192.195	39.7041	-3.65434	-198.722	28.2882	20.9883	-219.308	36.0425	3.34971	
36	0.3	-247.671	54.4447	15.1476	-255.632	78.973	3.01304	-263.862	93.3218	-7.05927	-276.954	110.314	-18.1969	-224.858	50.1949	-49.0353	-225.439	54.479	-71.6368	-224.143	66.119	-93.0771	-198.972	45.0145	-48.1111	-192.954	47.123	-72.8551	-180.026	58.5684	-94.6376	-181.15	49.9933	-34.7522	-172.502	52.894	-56.5956	-164.462	63.2737	-81.1133	-163.249	62.4722	-21.3666	-152.964	71.923	-33.5912	-139.021	83.9428	-43.6565	-191.666	38.2079	0.966482	-198.595	29.367	21.9761	-219.269	33.4289	4.96816	
37	0.308333	-246.611	52.128	13.8374	-257.369	74.1867	-1.61977	-265.931	86.4217	-11.6784	-278.714	100.567	-25.1685	-229.209	35.3266	-50.9432	-231.507	36.9937	-73.8824	-234.412	45.7443	-95.3008	-201.591	32.5696	-44.677	-195.006	29.6133	-71.7006	-185.817	37.5136	-95.2452	-183.325	38.7319	-34.8527	-177.294	37.0254	-62.1235	-166.184	43.1076	-83.1587	-167.875	52.4626	-19.0477	-155.153	60.3776	-35.2802	-147.25	65.1242	-51.3619	-198.381	33.3752	3.56027	-196.198	29.0195	26.8943	-224.245	27.9995	6.34802	
38	0.316667	-246.232	49.2228	15.7617	-259.636	70.7523	-0.199489	-269.688	80.678	-16.0343	-274.96	91.9359	-29.9228	-235.968	22.736	-41.2398	-241.952	20.1509	-68.5794	-239.404	24.9212	-91.4104	-211.928	16.961	-41.3135	-202.306	10.1196	-67.7924	-193.707	14.6012	-95.5535	-191.401	23.7455	-35.2804	-183.112	18.6266	-57.5237	-176.521	20.1961	-78.727	-171.353	40.7005	-24.1762	-158.401	44.68	-37.7728	-146.36	49.3614	-57.5143	-197.801	28.9648	5.96395	-203.342	27.4334	29.1954	-227.391	22.8454	12.8893	
39	0.325	-247.279	49.2379	19.0503	-253.69	67.6022	0.167169	-268.116	77.575	-19.4761	-277.533	87.5795	-37.7978	-244.947	10.6923	-37.3217	-250.234	6.23575	-56.507	-252.779	8.78422	-83.9221	-216.313	1.76244	-34.7954	-213.64	-7.76023	-60.4382	-207.533	-7.71704	-83.3517	-200.844	9.86134	-28.4075	-192.881	0.27251	-51.6449	-186.374	-2.56051	-74.681	-175.4	24.9876	-22.4009	-164.99	25.1735	-38.6333	-156.093	27.7261	-58.3249	-206.228	19.6775	11.0162	-204.202	25.6054	34.199	-232.883	22.4069	21.7594	
40	0.333333	-253.935	56.8591	22.5474	-255.599	70.5343	0.0097288	-267.694	79.4771	-16.4057	-276.787	89.3045	-33.245	-259.638	7.29212	-25.3419	-268.807	3.06993	-46.2568	-270.258	1.52693	-69.3561	-235.39	-4.96428	-23.7352	-237.445	-18.5474	-46.2217	-238.904	-20.8291	-74.2961	-213.932	-1.66503	-19.27	-214.401	-15.2721	-40.2362	-214.084	-19.5814	-66.1898	-191.752	9.65243	-15.2983	-179.22	5.35775	-32.5826	-174.851	0.849754	-53.408	-212.456	13.2503	14.8023	-211.686	23.4648	40.5399	-238.092	22.6342	29.525	
41	0.341667	-254.676	66.3167	29.4156	-251.649	78.4977	7.12827	-265.817	90.9428	-13.5184	-272.066	97.3584	-30.4241	-279.236	20.9869	-10.4891	-291.536	14.247	-29.4311	-295.892	12	-53.7037	-260.344	-1.66398	-12.8715	-270.002	-14.7877	-33.77	-269.785	-20.8819	-61.2386	-236.926	-3.75476	-9.37136	-246.678	-16.5733	-29.7839	-250.342	-21.6437	-53.3008	-208.689	-0.453386	-9.80487	-204.812	-8.75422	-29.0656	-199.845	-14.2243	-51.1152	-229.293	14.8657	22.8547	-223.627	25.9181	45.5266	-249.132	32.834	38.2949	
42	0.35	-251.248	76.5447	31.1596	-250.512	92.9302	10.9816	-258.18	100.92	-10.6009	-262.566	111.566	-24.4209	-296.242	45.7898	1.43754	-313.212	42.2234	-20.7029	-322.476	43.4241	-44.5719	-286.967	16.6872	-3.92475	-301.063	5.63778	-22.6687	-311.536	3.92532	-50.6194	-264.128	7.13521	-2.77736	-277.425	-6.85129	-22.6968	-287.528	-8.19138	-43.0613	-236.953	0.250993	-5.56321	-239.775	-10.3086	-24.2998	-241.718	-16.7116	-44.0018	-245.42	23.1428	29.9957	-232.522	30.0619	49.551	-256.059	44.9029	43.6667	
43	0.358333	-247.935	88.3321	35.7525	-244.888	99.4438	11.9947	-247.636	113.717	-2.73435	-251.584	128.339	-22.4543	-304.531	69.561	4.7396	-321.168	78.2097	-9.0965	-331.538	80.9215	-30.8034	-301.002	42.7837	3.6491	-326.077	40.9169	-14.8345	-334.718	38.1534	-38.6656	-290.48	26.8962	0.795317	-305.326	20.4239	-13.5109	-316.94	17.0992	-36.0792	-268.479	12.13	-3.82521	-272.616	2.32509	-19.5265	-278.751	-3.40623	-36.2143	-264.134	35.5045	31.1567	-244.924	33.2282	50.9826	-262.74	60.1854	47.506	
44	0.366667	-242.548	89.7843	37.237	-234.145	105.969	13.2502	-235.094	123.538	-4.46962	-235.179	131.625	-20.2852	-299.865	101.202	8.66296	-315.213	112.093	-6.0522	-325.354	120.842	-29.5677	-308.832	76.2434	7.58677	-331.494	78.2587	-8.11024	-345.917	83.6959	-33.4866	-307.305	52.6244	3.18161	-323.334	53.507	-9.7687	-336.394	55.0462	-32.0838	-288.888	32.9209	1.06351	-301.403	23.6924	-18.8534	-311.972	23.5042	-37.1147	-275.698	50.3659	33.3882	-260.086	47.4513	52.0187	-269.632	75.5684	47.448	
45	0.375	-238.066	92.888	33.61	-226.903	102.958	9.03724	-221.592	113.314	-5.31412	-214.798	124.958	-17.9741	-288.112	123.571	7.04289	-297.144	140.575	-9.68145	-303.634	151.579	-29.3246	-308.817	104.46	6.09496	-329.38	113.505	-11.6846	-339.683	122.656	-31.407	-310.005	83.5429	5.09459	-326.923	88.6786	-9.38097	-340.873	95.5662	-32.4485	-308.188	53.8419	-1.00046	-318.485	49.9654	-16.2877	-328.987	52.4931	-31.8685	-286.067	63.3242	33.2865	-270.649	57.5708	54.2979	-267.624	85.2748	46.7493	
46	0.383333	-234.482	93.5684	31.2926	-218.251	95.7757	10.4276	-210.757	104.898	-5.73232	-203.149	113.933	-24.3132	-271.063	134.531	4.90309	-276.143	152.066	-10.0412	-280.372	164.945	-31.8571	-296.088	125.581	4.73958	-311.822	143.173	-13.0091	-320.889	151.533	-33.3632	-308.775	100.229	3.43717	-320.102	117.251	-11.1372	-331.584	124.095	-30.1427	-314.763	76.6621	-2.50627	-322.809	79.3754	-14.6012	-331.669	81.4072	-33.4664	-288.28	83.2283	31.417	-278.202	67.4117	51.8352	-264.576	94.7591	43.9475	
47	0.391667	-228.785	88.0096	29.8696	-217.486	86.1492	6.69283	-198.928	93.7736	-8.33018	-188.005	96.2898	-22.2081	-252.9	140.515	-1.90112	-249.898	155.186	-15.5129	-248.074	170.697	-36.2172	-279.955	132.998	0.225937	-291.364	154.426	-16.7281	-294.585	168.907	-39.5866	-299.02	119.638	-2.45422	-304.696	134.792	-16.0234	-313.834	146.466	-35.1904	-307.423	95.3214	-4.50624	-319.294	99.4825	-21.5443	-326.53	105.488	-40.6278	-284.269	91.6198	28.4953	-278.777	83.1132	48.4371	-258.926	101.408	41.0703	
48	0.4	-224.762	82.5715	29.4587	-211.997	75.9709	6.04213	-191.584	77.4707	-8.84426	-183.153	78.0078	-27.1335	-232.966	135.396	-8.9506	-227.972	151.449	-26.1063	-222.011	162.926	-45.7571	-262.238	136.729	-8.88224	-262.097	160.314	-27.2835	-263.769	173.432	-51.7772	-278.081	125.506	-9.06929	-288.547	144.216	-26.0438	-286.394	157.581	-46.9362	-300.374	108.015	-12.0437	-307.072	115.718	-29.87	-312.083	120.8	-43.7851	-277.335	102.06	23.847	-274.42	92.6003	42.1518	-252.824	103.498	35.8655	
49	0.408333	-213.101	77.6573	22.1376	-205.553	66.2767	3.89712	-188.891	61.275	-11.2112	-175.257	56.044	-27.1535	-213.356	126.91	-21.3971	-203.358	137.946	-40.5955	-196.222	144.57	-59.2511	-239.852	135.582	-19.9844	-239.514	153.535	-39.7299	-242.215	166.569	-66.3833	-262.235	129.252	-18.3415	-263.226	145.659	-37.8864	-266.251	155.92	-56.0182	-279.441	113.015	-14.9532	-287.623	121.882	-34.0187	-298.903	128.788	-51.9183	-261.193	110.93	15.3253	-259.388	98.9007	37.9353	-236.065	105.249	27.3829	
50	0.416667	-208.126	68.8596	22.7424	-199.36	53.4004	1.93179	-187.913	43.5062	-11.9127	-174.137	32.4805	-24.0297	-199.476	106.117	-29.6714	-191.914	118.391	-53.929	-182.503	119.259	-72.5619	-223.481	123.784	-32.4043	-220.46	139.682	-54.3465	-222.267	148.78	-77.6346	-244.192	122.331	-27.2625	-247.147	138.091	-49.8487	-246.426	146.68	-71.0563	-268.982	115.654	-24.5361	-277.311	121.565	-38.6167	-280.511	127.825	-56.7153	-245.654	109.886	10.0751	-246.991	105.721	32.2313	-221.609	102.273	19.5907	
51	0.425	-202.003	59.9086	20.8145	-197.324	38.6763	6.15564	-191.197	26.1308	-9.77169	-179.532	10.2405	-22.6269	-192.854	88.1518	-41.1376	-185.259	90.2196	-64.497	-180.751	89.5901	-88.5768	-211.776	107.16	-42.5827	-206.531	116.554	-64.3259	-211.872	125.816	-95.508	-230.062	111.818	-37.2679	-231.276	122.435	-60.1911	-236.602	128.939	-78.32	-258.309	111.858	-25.719	-266.068	116.629	-47.3789	-270.688	117.38	-65.0337	-229.845	105.403	1.78016	-232.63	105.549	27.1517	-205.839	94.0056	11.8728	
52	0.433333	-196.698	56.1913	18.3658	-197.598	33.1167	10.7411	-188.888	10.2	-5.29929	-186.418	-5.05167	-12.6355	-192.04	69.2274	-44.4288	-187.183	64.9279	-68.2494	-187.283	57.2115	-92.2954	-206.27	92.6659	-51.3517	-202.904	94.2995	-72.7227	-207.337	94.0843	-101.167	-226.866	100.471	-39.6515	-225.993	104.346	-65.2587	-232.111	107.94	-86.8829	-249.905	104.783	-29.2215	-260.725	105.788	-49.0007	-272.565	107.505	-66.4292	-218.494	98.3121	-3.7758	-216.17	105.93	24.6001	-194.953	85.2215	5.14481	
